<svg id="Layer_1" data-name="Layer 1" xmlns="http://www.w3.org/2000/svg" viewBox="0 0 757.87 790.72"><defs><style>.cls-1{fill:#121213;}.cls-2{fill:#fff;}</style></defs><path class="cls-1" d="M382.65,267.8c12.3-36.3,48.31-59.2,80.14-76.87a431.12,431.12,0,0,1,90.61-37.51c32.46-9.29,66.41-12.93,98.26-24.39,17.37-3.14,42.24,2.82,55.19-9.51-4.59-6.3-14.26.42-17.64-7.53,2.15-7.5,12.7-7.29,13.57-15.49-.69-3.24-4.7-4.42-4.91-8,6.79-23.79,40.54-19.45,53.61-25.74-7-8.31-48.48,2-56-5.94-6.22-5.25-12.89-9.56-21.21-10.76a4.35,4.35,0,0,1-3.53-3.32c.62-6.36,7.06-8.89,8.68-13.29.67-4.64-3.3-6.35-3.47-9.91-.46-2.46,12.34-2.87,12.22-5.9-6.53-3.36-20.6,2-29.9-9.21-30-4.92-146.7,29.31-174.63,39.93-95.29,36.22-186.53,97-234.55,189.81-19,36.71-29.49,85.86-10.75,124.75,46.09,95.71,178.72,25.16,251.13,10.49,12.46-2.53,27.22-6.66,39.88-3.44,46.52,11.84-24.37,73.13-35.57,81.81-55.76,43.22-124.68,76.1-188.73,105.56-32.2,14.81-65.15,27.66-98.45,39.74C174.67,604.72,63,649.61,56,651.33,25,658.87-3.18,675.63,5.62,675c18.78-1.37,37.41-5,56-8,7.76-1.26,29.68-7.93,34.83-.57,4.66,6.64-4.48,12.74-8.25,17.38-5.24,6.44-11.18,12.6-18.79,16.19-10.21,4.81-35.75,16.67-43.92,24.44,9.73-2.22,35.47-10.34,44.93-13.53,7.25-2.45,15-6,22.81-6,5.2,0,11.77,3.33,7.63,9.35-2.17,3.16-5,3.77-8.11,5.69a9.51,9.51,0,0,0-3.83,4.21c-.74,1.78-18.07,10.06-16.94,11.62,2.93,4,27.37-6.29,30.83-7.52,6-2.16,12.15-4.17,18.13-6.51,3.08-1.2,6.13-2.47,9.11-3.9a81,81,0,0,1,7.35-3.5c6.31-2.15,12.54-4.51,18.8-6.77,3.07-1.11,6.15-2.22,9.25-3.26.79-.26,4.39-2,5.2-1.51l.33.06c-3.21,3.19-9.14,4.94-13.15,6.81-6.34,3-13,5.49-19.18,8.77-5.61,3-10.83,6.58-16.11,10.09-5.48,3.64-10.92,5.59-14.84,11.28-3,4.35-4.73,10.47-8.88,13.81-5.39,4.34-12.88,7.18-19.2,9.9C72,766.81,64.32,770,56.67,773.29,50.41,776,34,785.69,40.34,786.58c9.54,1.34,36.25-7.54,45.14-10.44,19.44-6.34,37.63-15.89,56.38-23.92C252.1,704,363,654.09,465.55,590.68c59.62-36.88,124.91-78.31,174-128.89,40.79-42.05,82.39-111.32,46.77-168.49-20-32.11-59.56-42.87-95.42-42.58-46.77.37-96.88,16.91-139.12,36.17-19.93,9.08-83.24,29.6-69.75-17.05C382.2,269.16,382.42,268.48,382.65,267.8Z"/><path class="cls-2" d="M42.48,790.72a20.34,20.34,0,0,1-2.7-.17c-4-.56-4.72-3.47-4.83-4.34-1-7.39,19.94-16.52,20.15-16.61l5.28-2.24c5.88-2.5,11.76-5,17.6-7.57l2.68-1.14c5.6-2.37,11.4-4.82,15.62-8.22,2-1.59,3.41-4.38,4.91-7.32a49.74,49.74,0,0,1,3.18-5.63c3.29-4.79,7.42-7.27,11.45-9.63-2,.72-4,1.42-6,2.12l-5.68,2c-.42.15-1.18.45-2.19.84-21.85,8.54-29.91,9.82-33.23,5.27l-1-1.44.33-2c.55-2.59,2.63-4,11.31-9,2.09-1.21,5.14-3,6.23-3.79a13.78,13.78,0,0,1,5.07-5.33c1-.63,2-1.13,2.94-1.62,2-1,3.07-1.61,4-2.94a2.72,2.72,0,0,0,.6-1.33c-.15-.51-2.23-1.73-4.95-1.74-5.47,0-11.28,2.11-16.89,4.15-1.56.57-3.1,1.13-4.62,1.64-9,3.05-35.32,11.37-45.32,13.65l-14.22,3.25L22.7,721.48c8.32-7.92,32.22-19.17,43.7-24.57l1.27-.6c7.31-3.45,12.9-9.56,17.39-15.09a47.21,47.21,0,0,1,3.25-3.47c5.16-5.19,6.19-7.14,4.83-9.08-2.68-3.83-19-.27-25.19,1.06-2.27.49-4.24.92-5.72,1.16q-6,1-12,2c-14.44,2.45-29.38,5-44.27,6.08C1,679.42.15,675.86,0,675.15c-1.41-9,38.38-23.68,55-27.71,3.34-.82,36.05-13.67,67.67-26.1,32.9-12.93,66.91-26.29,82.59-32,38.85-14.09,70-26.68,98.14-39.61,65.18-30,133.38-62.8,188-105.09,14.48-11.23,53.11-47.53,49.44-65.17-.35-1.68-1.42-6.78-12.4-9.58-10-2.54-22.1.06-32.76,2.35l-5.34,1.13c-15.05,3-33,8.62-52,14.52-73.8,22.93-165.66,51.48-203.55-27.2C218,325.88,222,277.9,245.56,232.39c54.15-104.68,158.6-162,236.68-191.72C509.44,30.33,627.38-4.68,659,.52l1.48.25,1,1.15c4.9,5.92,11.5,6.15,17.88,6.36,4,.14,7.69.26,10.76,1.85l2.09,1.07.09,2.34c.18,4.82-5.28,6.2-9.67,7.3l-1.61.41.07.11c1.19,1.82,3,4.57,2.41,8.71l-.2.81a18.27,18.27,0,0,1-4.6,6.3c-1.59,1.6-3,3-3.58,4.77,10.06,1.77,17.6,7.24,23.07,11.86l.32.3c2.44,2.58,15.8,2,24.65,1.59,14.3-.63,26.66-1.18,31.47,4.53l3.33,4-4.66,2.24c-4.45,2.15-10.64,3.14-17.19,4.19-13.85,2.22-29.51,4.74-34,18.08a10.65,10.65,0,0,0,1.21,1.36,11.39,11.39,0,0,1,3.47,5.61l.14.63-.07.63c-.67,6.26-5.29,9.17-8.66,11.29a15.62,15.62,0,0,0-4.35,3.44c.73.53,2,.67,4.54.74,3.58.09,8.47.22,11.79,4.77l2.08,2.84-2.55,2.42c-9.8,9.33-24.56,9.41-38.84,9.49-6.54,0-12.73.08-18.09,1-18.67,6.68-38.24,10.78-57.17,14.74-13.55,2.83-27.56,5.76-41,9.61a427.11,427.11,0,0,0-89.77,37.17c-33.89,18.81-66.84,40.87-78.29,74.65h0c-.21.62-.41,1.24-.58,1.86-2.85,9.85-2.14,16.7,2.1,20.36,10.59,9.14,42.71.79,62.13-8.07,52.46-23.91,99.81-36.2,140.76-36.53,44.87-.39,81,15.85,98.85,44.47,43.88,70.43-25.11,150.52-47.29,173.4-48,49.43-110,89.47-174.75,129.5C365.48,657.29,256,706.68,143.47,755.89c-6,2.57-11.91,5.27-17.82,8-12.53,5.74-25.49,11.69-38.93,16.07l-.94.31C70.59,785.22,52.41,790.72,42.48,790.72Zm128.7-83a46.81,46.81,0,0,1-8.39,4.1c-1.17.48-2.3.93-3.3,1.4-2.43,1.14-4.91,2.21-7.39,3.29-3.89,1.68-7.91,3.42-11.61,5.39a156.82,156.82,0,0,0-13.66,8.49l-2.1,1.4c-1.52,1-3,1.9-4.53,2.76-3.68,2.15-6.86,4-9.22,7.45a42.5,42.5,0,0,0-2.65,4.72c-1.74,3.41-3.7,7.27-7,9.94-5.09,4.1-11.7,6.89-17.52,9.36l-2.6,1.1c-5.85,2.57-11.76,5.08-17.66,7.59L58.24,777a74,74,0,0,0-9.51,5.14c11.14-1.82,28-7.34,34.56-9.48l.95-.31c13-4.24,25.74-10.09,38.07-15.74,6-2.74,11.94-5.47,18-8.06,112.23-49.06,221.42-98.33,323.15-161.26C527.72,547.51,589.33,507.78,636.65,459c21.17-21.82,87.05-98.09,46.25-163.58-23.18-37.21-72.07-40.93-92-40.7-39.25.32-86.8,12.7-137.49,35.81-.52.24-51.67,23.27-70.69,6.85-6.83-5.89-8.37-15.54-4.57-28.65q.31-1.11.69-2.22h0c12.33-36.35,46.69-59.49,82-79.08a436,436,0,0,1,91.46-37.87c13.73-3.92,27.89-6.88,41.58-9.75,18.77-3.92,38.18-8,56.43-14.55l.64-.17c6.11-1.11,13.06-1.15,19.79-1.19,9.88-.06,20-.12,27.59-3.5h-.24c-3.89-.1-9.77-.26-12.57-6.84l-.55-1.3.39-1.37c1.43-5,5.34-7.48,8.48-9.46,2.89-1.82,4.31-2.86,4.8-4.52a14.83,14.83,0,0,0-1.13-1.24c-1.37-1.39-3.43-3.49-3.64-6.88l0-.68.18-.66c4.93-17.22,22-21.57,36.22-24-2.44.07-4.78.18-6.81.27-13.71.61-25.57,1.13-30.63-3.9-7-5.91-12.75-8.83-19.06-9.74a8.33,8.33,0,0,1-6.86-6.37l-.15-.64.06-.66c.51-5.17,3.76-8.46,6.13-10.85a15.63,15.63,0,0,0,2.6-3.06c0-.79-.34-1.42-1.21-2.73A11.79,11.79,0,0,1,672,20,4.32,4.32,0,0,1,673.48,16c-5.63-.55-12-2.15-17.2-7.74-30-3.42-141.45,28.61-171.19,39.92-76.78,29.18-179.42,85.48-232.41,187.9-22.39,43.3-26.4,88.6-10.7,121.18,34.88,72.43,123.08,45,194,23,19.2-6,37.33-11.6,52.77-14.73,1.71-.35,3.47-.72,5.25-1.11,11.53-2.48,24.61-5.29,36.42-2.28,10.51,2.68,16.66,8,18.27,15.72,5.67,27.25-51.79,72.68-52.37,73.13C441,493.8,372.36,526.85,306.75,557c-28.3,13-59.69,25.69-98.75,39.86-15.57,5.65-49.54,19-82.38,31.91-40.21,15.8-65,25.53-68.72,26.42a185.2,185.2,0,0,0-39.12,14.55c10.47-1.26,20.89-3,31.06-4.76q6.06-1,12.11-2c1.37-.23,3.2-.62,5.3-1.08,11.71-2.53,27.72-6,33.46,2.17,5.58,8-1.49,15.08-5.72,19.33a38.43,38.43,0,0,0-2.71,2.88c-4.77,5.86-11.37,13.12-20.2,17.28l-1.26.6c-4,1.89-10.14,4.77-16.55,8,6.53-2,12.43-4,15.84-5.11,1.46-.49,2.94-1,4.44-1.57,6.27-2.29,12.75-4.65,19.65-4.65,4.45,0,9.87,1.9,12,6,.89,1.7,1.93,5.21-1.09,9.6A16.7,16.7,0,0,1,97.18,722c-.75.38-1.53.78-2.33,1.28a5.56,5.56,0,0,0-2.26,2.35c-.48,1.15-1.35,2-3.32,3.33,2.74-1,6-2.14,9.76-3.62,1.1-.43,1.94-.76,2.4-.92,1.91-.69,3.83-1.35,5.74-2,4.11-1.43,8.23-2.87,12.28-4.45,3.44-1.34,6.24-2.54,8.83-3.78.62-.3,1.31-.65,2-1a46,46,0,0,1,5.76-2.65c4.26-1.45,8.48-3,12.71-4.55l6-2.2c3.1-1.12,6.21-2.24,9.34-3.29l.61-.24a24.13,24.13,0,0,1,3.61-1.3l.75-1.13,8.92,3.63-4.27,4.24-.28.27-1.26,2.44Zm-86,14.79h0Z"/></svg>